<svg width="46" height="45" viewBox="0 0 46 45" fill="none" xmlns="http://www.w3.org/2000/svg">
<path d="M14.4998 23.3259C17.0372 21.4047 20.0648 20.2917 23.3221 20.2917C26.586 20.2917 29.6247 21.4135 32.1665 23.3436M28.1341 28.5023C26.675 27.6437 25.0129 27.1908 23.3199 27.1905C21.5996 27.1905 19.9721 27.6565 18.5278 28.489M23.3332 34.6458H23.3464M12.2915 9.25H12.3048M21.1248 9.25H21.1381" stroke="black" stroke-width="3" stroke-linecap="round" stroke-linejoin="round"/>
<path d="M2.354 22.5C2.354 12.6111 2.354 7.66439 5.42579 4.5926C8.49759 1.52081 13.442 1.52081 23.3332 1.52081C33.2221 1.52081 38.1687 1.52081 41.2405 4.5926C44.3123 7.66439 44.3123 12.6089 44.3123 22.5C44.3123 32.3889 44.3123 37.3356 41.2405 40.4073C38.1687 43.4791 33.2243 43.4791 23.3332 43.4791C13.4443 43.4791 8.49759 43.4791 5.42579 40.4073C2.354 37.3356 2.354 32.3911 2.354 22.5Z" stroke="black" stroke-width="3" stroke-linecap="round" stroke-linejoin="round"/>
</svg>
