<svg width="18" height="13" viewBox="0 0 18 13" fill="none" xmlns="http://www.w3.org/2000/svg">
<path d="M17.1767 2.26773C16.9805 1.52867 16.4021 0.946605 15.6679 0.749074C14.3369 0.390137 9.00002 0.390137 9.00002 0.390137C9.00002 0.390137 3.66314 0.390137 2.33218 0.749074C1.59789 0.946637 1.01958 1.52867 0.8233 2.26773C0.466675 3.60732 0.466675 6.40226 0.466675 6.40226C0.466675 6.40226 0.466675 9.1972 0.8233 10.5368C1.01958 11.2759 1.59789 11.8337 2.33218 12.0312C3.66314 12.3901 9.00002 12.3901 9.00002 12.3901C9.00002 12.3901 14.3369 12.3901 15.6679 12.0312C16.4021 11.8337 16.9805 11.2759 17.1767 10.5368C17.5334 9.1972 17.5334 6.40226 17.5334 6.40226C17.5334 6.40226 17.5334 3.60732 17.1767 2.26773ZM7.25455 8.93986V3.86467L11.7151 6.40232L7.25455 8.93986Z" fill="#125671"/>
</svg>
