<svg width="18" height="15" viewBox="0 0 18 15" fill="none" xmlns="http://www.w3.org/2000/svg">
<path d="M16.1497 3.72395C16.1612 3.88384 16.1612 4.04377 16.1612 4.20366C16.1612 9.08053 12.4493 14.6998 5.66497 14.6998C3.57486 14.6998 1.63325 14.0945 0 13.0438C0.296965 13.078 0.582469 13.0894 0.890859 13.0894C2.61545 13.0894 4.20303 12.507 5.4708 11.5133C3.84898 11.479 2.48984 10.4169 2.02155 8.95492C2.25 8.98916 2.47841 9.01201 2.71828 9.01201C3.04949 9.01201 3.38073 8.96631 3.68909 8.8864C1.99874 8.54373 0.730934 7.05898 0.730934 5.26583V5.22016C1.22203 5.49428 1.79314 5.66559 2.39843 5.68841C1.40477 5.02596 0.753785 3.89527 0.753785 2.61607C0.753785 1.9308 0.936492 1.30263 1.25631 0.754406C3.0723 2.99298 5.80201 4.45488 8.86289 4.61481C8.8058 4.3407 8.77152 4.05519 8.77152 3.76965C8.77152 1.73664 10.4162 0.0805664 12.4606 0.0805664C13.5228 0.0805664 14.4822 0.525996 15.156 1.24554C15.9898 1.08565 16.7893 0.777258 17.4974 0.35468C17.2233 1.2113 16.6408 1.93084 15.8756 2.38766C16.618 2.30775 17.3375 2.10212 17.9999 1.81662C17.4975 2.54755 16.8693 3.19854 16.1497 3.72395Z" fill="#125671"/>
</svg>
