<svg width="15" height="21" viewBox="0 0 15 21" fill="none" xmlns="http://www.w3.org/2000/svg">
<path d="M7.33997 6.40625C9.30872 6.40625 10.9337 8.03125 10.9337 10C10.9337 12 9.30872 13.5938 7.33997 13.5938C5.33997 13.5938 3.74622 12 3.74622 10C3.74622 8.03125 5.33997 6.40625 7.33997 6.40625ZM7.33997 12.3438C8.62122 12.3438 9.65247 11.3125 9.65247 10C9.65247 8.71875 8.62122 7.6875 7.33997 7.6875C6.02747 7.6875 4.99622 8.71875 4.99622 10C4.99622 11.3125 6.05872 12.3438 7.33997 12.3438ZM11.9025 6.28125C11.9025 6.75 11.5275 7.125 11.0587 7.125C10.59 7.125 10.215 6.75 10.215 6.28125C10.215 5.8125 10.59 5.4375 11.0587 5.4375C11.5275 5.4375 11.9025 5.8125 11.9025 6.28125ZM14.2775 7.125C14.34 8.28125 14.34 11.75 14.2775 12.9062C14.215 14.0312 13.965 15 13.1525 15.8438C12.34 16.6562 11.34 16.9062 10.215 16.9688C9.05872 17.0312 5.58997 17.0312 4.43372 16.9688C3.30872 16.9062 2.33997 16.6562 1.49622 15.8438C0.683716 15 0.433716 14.0312 0.371216 12.9062C0.308716 11.75 0.308716 8.28125 0.371216 7.125C0.433716 6 0.683716 5 1.49622 4.1875C2.33997 3.375 3.30872 3.125 4.43372 3.0625C5.58997 3 9.05872 3 10.215 3.0625C11.34 3.125 12.34 3.375 13.1525 4.1875C13.965 5 14.215 6 14.2775 7.125ZM12.7775 14.125C13.1525 13.2188 13.0587 11.0312 13.0587 10C13.0587 9 13.1525 6.8125 12.7775 5.875C12.5275 5.28125 12.0587 4.78125 11.465 4.5625C10.5275 4.1875 8.33997 4.28125 7.33997 4.28125C6.30872 4.28125 4.12122 4.1875 3.21497 4.5625C2.58997 4.8125 2.12122 5.28125 1.87122 5.875C1.49622 6.8125 1.58997 9 1.58997 10C1.58997 11.0312 1.49622 13.2188 1.87122 14.125C2.12122 14.75 2.58997 15.2188 3.21497 15.4688C4.12122 15.8438 6.30872 15.75 7.33997 15.75C8.33997 15.75 10.5275 15.8438 11.465 15.4688C12.0587 15.2188 12.5587 14.75 12.7775 14.125Z" fill="white"/>
</svg>
