<svg width="17" height="21" viewBox="0 0 17 21" fill="none" xmlns="http://www.w3.org/2000/svg">
<path d="M8.88 2.25C13.13 2.25 16.63 5.75 16.63 10C16.63 14.2812 13.13 17.75 8.88 17.75C4.59875 17.75 1.13 14.2812 1.13 10C1.13 5.75 4.59875 2.25 8.88 2.25ZM13.9738 5.84375C13.8488 6.03125 12.755 7.4375 10.2863 8.4375C10.5363 8.9375 10.6925 9.3125 10.88 9.75C13.0675 9.46875 15.255 9.90625 15.4738 9.96875C15.4738 8.40625 14.9113 6.96875 13.9738 5.84375ZM13.255 5.0625C11.63 3.625 9.41125 3.09375 7.3175 3.59375C7.505 3.84375 8.6925 5.46875 9.78625 7.46875C12.13 6.59375 13.13 5.25 13.255 5.0625ZM6.03625 4.03125C4.1925 4.90625 2.8175 6.625 2.38 8.65625C2.6925 8.6875 5.41125 8.6875 8.505 7.875C7.41125 5.90625 6.22375 4.28125 6.03625 4.03125ZM2.255 10.0312C2.255 11.7188 2.88 13.2812 3.9425 14.4375C5.005 12.625 7.1925 10.6875 9.59875 10C9.41125 9.625 9.255 9.25 9.03625 8.875C5.755 9.875 2.53625 9.84375 2.255 9.8125C2.255 9.90625 2.255 9.96875 2.255 10.0312ZM4.78625 15.25C6.755 16.7812 9.3175 17.0312 11.4425 16.125C11.3488 15.5312 10.9738 13.5 10.0363 11.0938C7.38 12 5.505 13.8438 4.78625 15.25ZM12.5675 15.5C14.0363 14.5 15.0988 12.9062 15.4113 11.0625C15.1613 11 13.3488 10.4688 11.2863 10.7812C12.13 13.1875 12.505 15.125 12.5675 15.5Z" fill="white"/>
</svg>
